<mxfile host="app.diagrams.net" modified="2022-06-09T15:23:01.352Z" agent="5.0 (Windows NT 10.0; Win64; x64) AppleWebKit/537.36 (KHTML, like Gecko) Chrome/102.0.5005.63 Safari/537.36" etag="mtwxm8C-Wj-WMnyAlF2J" version="19.0.3" type="github">
  <diagram id="sJbMyrKm-ca9RMT0lqFK" name="Page-1">
    <mxGraphModel dx="868" dy="450" grid="1" gridSize="10" guides="1" tooltips="1" connect="1" arrows="1" fold="1" page="1" pageScale="1" pageWidth="827" pageHeight="1169" math="0" shadow="0">
      <root>
        <mxCell id="0" />
        <mxCell id="1" parent="0" />
        <mxCell id="jYwWDvMQ2mVFs24kCtVH-1" value="Сервер приложения" style="aspect=fixed;perimeter=ellipsePerimeter;html=1;align=center;shadow=0;dashed=0;spacingTop=3;image;image=img/lib/active_directory/generic_server.svg;" vertex="1" parent="1">
          <mxGeometry x="150" y="40" width="44.8" height="80" as="geometry" />
        </mxCell>
        <mxCell id="jYwWDvMQ2mVFs24kCtVH-2" value="Сервер БД" style="aspect=fixed;perimeter=ellipsePerimeter;html=1;align=center;shadow=0;dashed=0;spacingTop=3;image;image=img/lib/active_directory/database_server.svg;" vertex="1" parent="1">
          <mxGeometry x="139.6" y="180" width="65.6" height="80" as="geometry" />
        </mxCell>
      </root>
    </mxGraphModel>
  </diagram>
</mxfile>
